<?xml version="1.0" standalone="no"?><!DOCTYPE svg PUBLIC "-//W3C//DTD SVG 1.1//EN" "http://www.w3.org/Graphics/SVG/1.1/DTD/svg11.dtd"><svg t="1590303106862" class="icon" viewBox="0 0 1024 1024" version="1.1" xmlns="http://www.w3.org/2000/svg" p-id="6210" xmlns:xlink="http://www.w3.org/1999/xlink" width="200" height="200"><defs><style type="text/css"></style></defs><path d="M902.97831 735.755325 794.790093 735.785574 794.790093 290.532739C794.790093 245.399444 759.300113 208.812203 715.520375 208.812203L688.780242 208.812203C687.993873 208.762596 687.202805 208.729924 686.403527 208.729924L392.765555 208.812203 291.611251 208.812203 291.611251 208.840033 284.461145 208.842456 284.461145 130.017388 284.310913 130.017388 284.301524 96.556726C284.296829 74.645282 267.063568 56.885259 245.808077 56.888889 224.553761 56.89373 207.326368 74.6598 207.329889 96.572456L207.339278 130.017388 207.329889 130.017388 207.329889 208.864233 99.126415 208.894481C77.872098 208.899322 60.644705 226.665392 60.648227 248.578048 60.652921 270.489498 77.886183 288.249515 99.141673 288.245885L207.329889 288.215637 207.329887 733.467261C207.329887 778.600558 242.819866 815.187796 286.599603 815.187796L313.339738 815.187796C314.126108 815.237406 314.917175 815.270075 315.716456 815.270075L609.354422 815.187796 710.508726 815.187796 710.508726 815.159967 717.658834 815.157546 717.658834 893.982611 717.809067 893.982611 717.818459 927.443274C717.823152 949.354721 735.056412 967.114741 756.311905 967.111111 777.566219 967.106271 794.793614 949.3402 794.790093 927.427544L794.7807 893.982611 794.790093 893.982611 794.790093 815.135767 902.993567 815.105518C924.247882 815.100678 941.475277 797.334608 941.471755 775.421951 941.468234 753.510505 924.233802 735.751695 902.97831 735.755325L902.97831 735.755325ZM609.208889 735.837603 325.381778 735.837603C304.639189 735.837603 284.462318 714.872358 284.462318 693.48846L284.462318 288.192643 392.91344 288.162395 676.740551 288.162395C697.483139 288.162395 717.660006 309.12764 717.660006 330.511536L717.660006 735.807353 609.208889 735.837603 609.208889 735.837603Z" p-id="6211"></path></svg>