<?xml version="1.0" standalone="no"?><!DOCTYPE svg PUBLIC "-//W3C//DTD SVG 1.1//EN" "http://www.w3.org/Graphics/SVG/1.1/DTD/svg11.dtd"><svg t="1590303143240" class="icon" viewBox="0 0 1024 1024" version="1.1" xmlns="http://www.w3.org/2000/svg" p-id="6705" xmlns:xlink="http://www.w3.org/1999/xlink" width="200" height="200"><defs><style type="text/css"></style></defs><path d="M570.362 719.538a51.31 51.31 0 0 1-8.03-0.635c-19.09-3.023-34.513-16.367-40.249-34.823l-41.51-133.536a10.813 10.813 0 0 0-7.116-7.117l-133.537-41.51c-18.456-5.737-31.8-21.16-34.824-40.249-3.023-19.09 4.901-37.881 20.681-49.041l114.174-80.743a10.81 10.81 0 0 0 4.569-8.968l-1.788-139.827c-0.247-19.327 10.298-36.783 27.52-45.557 17.222-8.773 37.542-7.043 53.031 4.516l112.072 83.634a10.806 10.806 0 0 0 9.939 1.574l132.432-44.909c18.309-6.205 38.166-1.571 51.831 12.094 13.667 13.667 18.302 33.527 12.095 51.831l-44.909 132.431a10.809 10.809 0 0 0 1.574 9.94l83.634 112.073c11.56 15.49 13.29 35.811 4.515 53.032-8.673 17.022-25.831 27.521-44.892 27.521-0.222 0-0.443-0.002-0.666-0.005l-139.827-1.787c-3.566 0.004-6.911 1.663-8.966 4.569L611.372 698.22c-9.586 13.557-24.808 21.317-41.01 21.318z m-194.07-269.146l114.975 35.74a70.802 70.802 0 0 1 46.602 46.602l35.739 114.974 69.52-98.303c13.458-19.032 35.464-30.229 58.72-29.92l120.393 1.538-72.008-96.494a70.803 70.803 0 0 1-10.311-65.095l38.667-114.022-114.023 38.667a70.798 70.798 0 0 1-65.094-10.31l-96.495-72.009 1.539 120.391a70.804 70.804 0 0 1-29.921 58.722l-98.303 69.519z m408.539-223.389l-0.012 0.035 0.012-0.035z" p-id="6706"></path><path d="M202.764 892.016c-18.134 0-36.268-6.902-50.072-20.706v-0.001c-27.61-27.609-27.61-72.535 0-100.146l203.617-203.617c13.343-13.344 31.126-20.692 50.073-20.692s36.73 7.349 50.073 20.692c27.61 27.61 27.61 72.535 0 100.146L252.837 871.309c-13.805 13.804-31.939 20.707-50.073 20.707z m-7.646-63.134c4.145 4.145 11.147 4.144 15.294 0l203.616-203.616c4.145-4.146 4.145-11.148 0-15.294-2.713-2.713-5.955-3.118-7.646-3.118s-4.934 0.405-7.646 3.118L195.118 813.589c-4.145 4.144-4.145 11.148 0 15.293z" p-id="6707"></path></svg>