<?xml version="1.0" standalone="no"?><!DOCTYPE svg PUBLIC "-//W3C//DTD SVG 1.1//EN" "http://www.w3.org/Graphics/SVG/1.1/DTD/svg11.dtd"><svg t="1590303111014" class="icon" viewBox="0 0 1024 1024" version="1.1" xmlns="http://www.w3.org/2000/svg" p-id="6332" xmlns:xlink="http://www.w3.org/1999/xlink" width="200" height="200"><defs><style type="text/css"></style></defs><path d="M960 511.13a32 32 0 0 0-64 0.12v0.75c0 212.08-171.92 384-384 384S128 724.08 128 512s171.92-384 384-384c128.48 0 242.21 63.1 311.92 160H768a32 32 0 0 0 0 64h112a32 32 0 0 0 32-32V176a32 32 0 0 0-64 0v39.69C765.91 122.67 645.81 64 512 64 264.58 64 64 264.58 64 512s200.58 448 448 448 448-200.58 448-448v-0.87z" p-id="6333"></path><path d="M720 544a32 32 0 0 0-32-32H512V336a32 32 0 0 0-32-32 32 32 0 0 0-32 32v208a32 32 0 0 0 32 32h208a32 32 0 0 0 32-32z" p-id="6334"></path></svg>