<?xml version="1.0" standalone="no"?><!DOCTYPE svg PUBLIC "-//W3C//DTD SVG 1.1//EN" "http://www.w3.org/Graphics/SVG/1.1/DTD/svg11.dtd"><svg t="1590303114357" class="icon" viewBox="0 0 1024 1024" version="1.1" xmlns="http://www.w3.org/2000/svg" p-id="6455" xmlns:xlink="http://www.w3.org/1999/xlink" width="200" height="200"><defs><style type="text/css"></style></defs><path d="M512 924.60525333c-110.21137173 0-213.82565867-42.91764907-291.75696427-120.84895466-77.9299744-77.9313056-120.84895467-181.54559253-120.84895466-291.75829547 0-110.21137173 42.9189792-213.82565867 120.8502848-291.75563307 77.9313056-77.9313056 181.54559253-120.84895467 291.75696533-120.84895466 110.21137173 0 213.82565867 42.9189792 291.75696427 120.84895466s120.8502848 181.54559253 120.8502848 291.75563307c0 110.21270293-42.9189792 213.82698987-120.8502848 291.75829547s-181.54692373 120.84895467-291.75829547 120.84895466z m0-798.59459093c-212.8354976 0-385.988672 173.15317547-385.988672 385.9873408 0 212.8354976 173.15317547 385.988672 385.988672 385.98867307s385.9900032-173.15317547 385.9900032-385.98867307c0-212.8328352-173.1545056-385.98734187-385.9900032-385.9873408z" fill="" p-id="6456"></path><path d="M850.0616576 738.36704c-6.55449707 0-12.26389653-4.843008-13.17021333-11.51728213l-9.499696-69.9115296c-5.16507627-38.014752-18.7678208-101.2400288-30.32236694-140.93832107-11.2018688-38.4912-36.0597152-94.23570027-54.28055146-121.72865493-18.29669547-27.60341547-54.90738773-69.47500693-79.94623147-91.43290454l-47.53174827-41.6812768 17.55141334-20.01217706 47.52908586 41.68127786c26.94597013 23.62946027 64.8901856 67.02621973 84.58428694 96.73905174 19.76995947 29.8286176 45.632608 87.6958432 57.6516256 128.99516266 11.85931413 40.74434987 25.829376 105.69708693 31.140848 144.7924992l9.49969493 69.91152854c0.98883093 7.28380907-4.1123648 13.99002453-11.39617387 14.98018666-0.60953493 0.08251307-1.21374613 0.12243947-1.80997333 0.12243947z" fill="" p-id="6457"></path><path d="M865.54757227 339.05643627a13.2553888 13.2553888 0 0 1-5.03598294-0.99548587l-65.294768-26.72903893c-35.49809067-14.5303552-97.05446613-34.36286507-137.21856106-44.20991574-38.9357088-9.54361387-99.64299413-15.88916587-132.5592128-13.85427733-33.0559584 2.0428736-87.62264533 12.8135424-119.15609707 23.52033067l-59.86218773 20.32226773c-6.95907947 2.36361173-14.5183776-1.3628032-16.88065814-8.3232128s1.3641344-14.5183776 8.3232128-16.88065813l59.86218774-20.32226774c33.93432747-11.51994453 90.48932267-22.68188693 126.07125866-24.88180266 35.72300693-2.20390827 98.76196267 4.32929493 140.5390624 14.5689504 41.22479147 10.10523733 104.46071573 30.4847328 140.96493867 45.4289856l65.294768 26.72903893c6.80203733 2.78416427 10.05998827 10.5564 7.275824 17.35843733a13.3192704 13.3192704 0 0 1-12.32378453 8.26864854z" fill="" p-id="6458"></path><path d="M243.11124267 547.95125013l-26.1061952-5.19036373 12.33043946-62.0035456c6.98968853-35.1494048 25.6017984-89.70810667 41.48697174-121.62218453 15.94772373-32.0351872 53.13068587-83.3665472 82.8874368-114.42488214 29.35882347-30.64443627 78.626016-75.2203392 109.82409066-99.36617493l55.7964032-43.1824896c5.81187627-4.49831467 14.16969173-3.43495573 18.6693376 2.37958187 4.49831467 5.8132064 3.43362453 14.17102187-2.37958186 18.67066773l-55.79507307 43.1824896c-30.33700693 23.47907307-78.29063893 66.87184-106.89619307 96.72973653-27.73250987 28.946256-63.5792864 78.3465344-78.27866133 107.8730464-14.7579328 29.64628907-32.71392747 82.28854933-39.20853547 114.951904l-12.33043946 62.0022144z" fill="" p-id="6459"></path><path d="M399.912112 786.1543136a13.25139627 13.25139627 0 0 1-8.76905173-3.3018688l-47.53174827-41.67994667c-26.94863147-23.63212267-64.892848-67.02888107-84.58428693-96.74038293-19.76862933-29.82595627-45.632608-87.694512-57.65162454-128.99383253-11.86064533-40.752336-25.829376-105.7064032-31.13951786-144.79249814l-9.49969494-69.9115296 26.37502934-3.5826816 9.499696 69.9115296c5.16374613 38.00809707 18.7664896 101.23204373 30.32236693 140.93698987 11.2018688 38.4912 36.06104533 94.23570027 54.28188267 121.72732373 18.29403413 27.60075413 54.90472533 69.47234453 79.9475616 91.43290454l47.53041813 41.67994666c5.52707093 4.84566933 6.078048 13.2540576 1.23237867 18.7797984a13.2806752 13.2806752 0 0 1-10.01340907 4.53424747z" fill="" p-id="6460"></path><path d="M484.85573227 797.72616213c-36.53483307 0-88.8909568-6.10067307-125.18889707-14.9988192-41.21148267-10.102576-104.44740693-30.48074027-140.96360747-45.4276544l-65.294768-26.72903893c-6.80203733-2.7854944-10.05998827-10.5564-7.275824-17.35843733 2.7854944-6.80203733 10.56172373-10.05998827 17.35843734-7.27582507l65.294768 26.72903893c35.50740693 14.53434773 97.0637824 34.36552747 137.21722986 44.2085856 38.9343776 9.54361387 99.6390016 15.89448853 132.56054294 13.85560747 33.05196587-2.0415424 87.619984-12.8135424 119.15609706-23.5203296l59.8608576-20.32359893c6.95907947-2.36494187 14.5183776 1.3628032 16.88065814 8.3232128 2.36228053 6.95907947-1.3628032 14.5170464-8.32321387 16.88065813l-59.86085653 20.32359893c-33.93565867 11.52260587-90.49065387 22.68587947-126.07125867 24.884464-4.68330453 0.2887968-9.8364032 0.4285376-15.35016533 0.4285376z" fill="" p-id="6461"></path><path d="M504.672272 921.83572907l-16.28975467-21.0489184 55.795072-43.18115947c30.3343456-23.47907307 78.28797653-66.8705088 106.89486294-96.72973653 27.73384-28.94758613 63.5806176-78.3465344 78.27733013-107.8743776 14.7579328-29.64495893 32.71259627-82.28588693 39.2098656-114.95190294l12.33043947-62.0035456c1.43333867-7.20928107 8.44032853-11.89125547 15.64827946-10.45791573 7.20928107 1.43333867 11.89125547 8.44032853 10.4565856 15.6482784l-12.33043946 62.0035456c-6.98968853 35.1520672-25.60046827 89.710768-41.48697174 121.6221856-15.94506133 32.0351872-53.12802453 83.3678784-82.8861056 114.42621227-29.3614848 30.64443627-78.6273472 75.2203392-109.82409173 99.36484373l-55.795072 43.18249067z" fill="" p-id="6462"></path></svg>