<?xml version="1.0" standalone="no"?><!DOCTYPE svg PUBLIC "-//W3C//DTD SVG 1.1//EN" "http://www.w3.org/Graphics/SVG/1.1/DTD/svg11.dtd"><svg t="1592382155327" class="icon" viewBox="0 0 1024 1024" version="1.1" xmlns="http://www.w3.org/2000/svg" p-id="2693" xmlns:xlink="http://www.w3.org/1999/xlink" width="200" height="200"><defs><style type="text/css"></style></defs><path d="M893.1328 343.8592l-347.136 153.1904c-21.504 9.4208-46.4896 9.4208-67.7888 0L130.8672 343.8592c-30.5152-13.5168-30.5152-53.6576 0-67.1744l347.136-153.1904c21.504-9.4208 46.4896-9.4208 67.7888 0L892.928 276.6848c30.72 13.5168 30.72 53.6576 0.2048 67.1744z" p-id="2694"></path><path d="M512 706.7648c-16.1792 0-32.3584-3.2768-47.3088-10.0352l-306.3808-135.168c-26.4192-11.6736-42.8032-35.6352-42.8032-62.6688 0-27.0336 16.384-51.2 42.8032-62.6688l29.0816-12.9024c16.9984-7.5776 37.4784-0.8192 45.4656 14.9504 8.192 15.7696 0.8192 34.6112-16.1792 42.1888l-29.0816 12.9024c-2.4576 1.024-3.6864 3.072-3.6864 5.5296 0 2.6624 1.2288 4.5056 3.6864 5.5296l306.3808 135.168c11.4688 5.12 24.576 5.12 36.0448 0l306.3808-135.168c2.4576-1.024 3.8912-3.072 3.8912-5.5296 0-2.6624-1.2288-4.5056-3.6864-5.5296l-35.6352-15.7696c-16.9984-7.5776-24.1664-26.4192-16.1792-42.1888 8.192-15.7696 28.4672-22.528 45.4656-14.9504l35.6352 15.7696c26.4192 11.6736 42.8032 35.6352 42.8032 62.6688 0 27.0336-16.384 51.2-42.8032 62.6688l-306.3808 135.168c-15.1552 6.5536-31.3344 10.0352-47.5136 10.0352z" p-id="2695"></path><path d="M512 907.6736c-16.1792 0-32.3584-3.2768-47.3088-10.0352l-306.3808-135.168c-26.4192-11.6736-42.8032-35.6352-42.8032-62.6688 0-27.0336 16.384-51.2 42.8032-62.6688l29.0816-12.9024c16.9984-7.5776 37.4784-0.8192 45.4656 14.9504 8.192 15.7696 0.8192 34.6112-16.1792 42.1888L187.5968 694.272c-2.4576 1.024-3.6864 3.072-3.6864 5.5296 0 2.6624 1.2288 4.5056 3.6864 5.5296l306.3808 135.168c11.4688 5.12 24.576 5.12 36.0448 0l306.3808-135.168c2.4576-1.024 3.8912-3.072 3.8912-5.5296 0-2.6624-1.2288-4.5056-3.6864-5.5296l-35.6352-15.7696c-16.9984-7.5776-24.1664-26.4192-16.1792-42.1888 8.192-15.7696 28.4672-22.528 45.4656-14.9504l35.6352 15.7696c26.4192 11.6736 42.8032 35.6352 42.8032 62.6688 0 27.0336-16.384 51.2-42.8032 62.6688l-306.3808 135.168c-15.1552 6.5536-31.3344 10.0352-47.5136 10.0352z" p-id="2696"></path></svg>